<?xml version="1.0" encoding="UTF-8" standalone="no"?>
<!-- Svg Vector Icons : http://www.onlinewebfonts.com/icon -->

<svg
   xmlns:dc="http://purl.org/dc/elements/1.1/"
   xmlns:cc="http://creativecommons.org/ns#"
   xmlns:rdf="http://www.w3.org/1999/02/22-rdf-syntax-ns#"
   xmlns:svg="http://www.w3.org/2000/svg"
   xmlns="http://www.w3.org/2000/svg"
   xmlns:sodipodi="http://sodipodi.sourceforge.net/DTD/sodipodi-0.dtd"
   xmlns:inkscape="http://www.inkscape.org/namespaces/inkscape"
   version="1.1"
   x="0px"
   y="0px"
   viewBox="0 0 1000 1000"
   enable-background="new 0 0 1000 1000"
   xml:space="preserve"
   id="svg3067"
   inkscape:version="0.48.4 r9939"
   width="100%"
   height="100%"
   sodipodi:docname="plus.svg"><defs
     id="defs3109" /><sodipodi:namedview
     pagecolor="#ffffff"
     bordercolor="#666666"
     borderopacity="1"
     objecttolerance="10"
     gridtolerance="10"
     guidetolerance="10"
     inkscape:pageopacity="0"
     inkscape:pageshadow="2"
     inkscape:window-width="1551"
     inkscape:window-height="876"
     id="namedview3107"
     showgrid="false"
     inkscape:zoom="0.729"
     inkscape:cx="500"
     inkscape:cy="500"
     inkscape:window-x="49"
     inkscape:window-y="24"
     inkscape:window-maximized="1"
     inkscape:current-layer="svg3067" /><metadata
     id="metadata3069"> Svg Vector Icons : http://www.onlinewebfonts.com/icon <rdf:RDF><cc:Work
     rdf:about=""><dc:format>image/svg+xml</dc:format><dc:type
       rdf:resource="http://purl.org/dc/dcmitype/StillImage" /><dc:title></dc:title></cc:Work></rdf:RDF></metadata><g
     id="g3071"><g
       id="g3073"><path
         d="M500,10C229.8,10,10,229.8,10,500s219.8,490,490,490s490-219.8,490-490S770.2,10,500,10z M689.7,515.8H515.8v173.9h-31.6V515.8H310.3v-31.6h173.9V310.3h31.6v173.9h173.9L689.7,515.8L689.7,515.8z"
         id="path3075"
         fill="#444444" /></g><g
       id="g3077" /><g
       id="g3079" /><g
       id="g3081" /><g
       id="g3083" /><g
       id="g3085" /><g
       id="g3087" /><g
       id="g3089" /><g
       id="g3091" /><g
       id="g3093" /><g
       id="g3095" /><g
       id="g3097" /><g
       id="g3099" /><g
       id="g3101" /><g
       id="g3103" /><g
       id="g3105" /></g><path
     style="fill:#ffffff"
     d="m 485.18519,601.92044 0,-87.10563 -87.10563,0 -87.10562,0 0,-15.08916 0,-15.08916 87.10562,0 87.10563,0 0,-87.10563 0,-87.10562 15.08916,0 15.08916,0 0,87.10562 0,87.10563 87.10563,0 87.10562,0 0,15.08916 0,15.08916 -87.10562,0 -87.10563,0 0,87.10563 0,87.10562 -15.08916,0 -15.08916,0 0,-87.10562 z"
     id="path3111"
     inkscape:connector-curvature="0" /><path
     style="fill:#ffffff"
     d="m 485.18519,601.92044 0,-87.10563 -87.10563,0 -87.10562,0 0,-15.08916 0,-15.08916 87.10562,0 87.10563,0 0,-87.10563 0,-87.10562 15.08916,0 15.08916,0 0,87.10562 0,87.10563 87.10563,0 87.10562,0 0,15.08916 0,15.08916 -87.10562,0 -87.10563,0 0,87.10563 0,87.10562 -15.08916,0 -15.08916,0 0,-87.10562 z"
     id="path3117"
     inkscape:connector-curvature="0" /><path
     style="fill:#ffffff"
     d="m 485.18519,601.92044 0,-87.10563 -87.10563,0 -87.10562,0 0,-15.08916 0,-15.08916 87.10562,0 87.10563,0 0,-87.10563 0,-87.10562 15.08916,0 15.08916,0 0,87.10562 0,87.10563 87.10563,0 87.10562,0 0,15.08916 0,15.08916 -87.10562,0 -87.10563,0 0,87.10563 0,87.10562 -15.08916,0 -15.08916,0 0,-87.10562 z"
     id="path3119"
     inkscape:connector-curvature="0" /></svg>